<svg viewBox="0 0 400 320" xmlns="http://www.w3.org/2000/svg">
  <!-- Background -->
  <rect width="400" height="320" fill="#faf8f6"/>
  <ellipse cx="200" cy="175" rx="155" ry="135" fill="#f0ebe6"/>
  <ellipse cx="200" cy="185" rx="115" ry="100" fill="#e0d6cc"/>

  <!-- Ground -->
  <polygon points="60,265 340,265 360,285 40,285" fill="#c4b5a5"/>
  <polygon points="40,285 360,285 380,295 20,295" fill="#e0d6cc"/>

  <!-- Top-left accent: small document card -->
  <g>
    <polygon points="35,40 70,40 70,68 35,68" fill="#faf8f6"/>
    <polygon points="70,40 75,44 75,72 70,68" fill="#e0d6cc"/>
    <polygon points="35,68 70,68 75,72 40,72" fill="#c4b5a5"/>
    <polygon points="40,48 65,48 65,51 40,51" fill="#c4b5a5"/>
    <polygon points="40,55 62,55 62,58 40,58" fill="#c4b5a5"/>
    <polygon points="40,62 58,62 58,65 40,65" fill="#c4b5a5"/>
  </g>

  <!-- Top-right accent: paper heart -->
  <g>
    <polygon points="340,45 355,36 370,45 355,62" fill="#E5A630"/>
    <polygon points="355,36 370,45 355,62" fill="#D4832E"/>
    <polygon points="355,48 370,45 355,62" fill="#B86D1F"/>
  </g>

  <!-- Document with rosette (left satellite) -->
  <g>
    <polygon points="40,180 115,180 115,270 40,270" fill="#faf8f6"/>
    <polygon points="115,180 120,185 120,270 115,270" fill="#e0d6cc"/>
    <polygon points="40,270 115,270 120,275 45,275" fill="#c4b5a5"/>
    <polygon points="100,180 115,180 115,194 103,190" fill="#e0d6cc"/>
    <polygon points="103,190 115,194 107,198" fill="#c4b5a5"/>
    <polygon points="50,200 105,200 105,203 50,203" fill="#c4b5a5"/>
    <polygon points="50,212 105,212 105,215 50,215" fill="#c4b5a5"/>
    <polygon points="50,224 105,224 105,227 50,227" fill="#c4b5a5"/>
    <polygon points="89,248 84,244 80,239 76,244 71,248 76,252 80,257 84,252" fill="#D4832E"/>
    <polygon points="80,239 84,244 89,248 84,252 80,257" fill="#B86D1F"/>
    <polygon points="76,256 84,256 87,266 73,266" fill="#B86D1F"/>
    <polygon points="80,256 84,256 87,266 80,266" fill="#6D3A2C"/>
  </g>

  <!-- Hourglass (centrepiece) -->
  <g>
    <polygon points="155,100 245,100 240,108 160,108" fill="#8B4D3B"/>
    <polygon points="160,108 240,108 240,115 160,115" fill="#6D3A2C"/>

    <polygon points="160,115 200,115 200,177 196,177" fill="#f0ebe6"/>
    <polygon points="200,115 240,115 204,177 200,177" fill="#e0d6cc"/>
    <polygon points="193,167 207,167 204,177 196,177" fill="#E5A630"/>
    <polygon points="200,167 207,167 204,177 200,177" fill="#D4832E"/>
    <polygon points="199,177 201,177 201,195 199,195" fill="#D4832E"/>

    <polygon points="196,177 204,177 206,185 194,185" fill="#8B4D3B"/>

    <polygon points="194,185 200,185 200,245 160,245" fill="#f0ebe6"/>
    <polygon points="200,185 206,185 240,245 200,245" fill="#e0d6cc"/>
    <polygon points="170,215 200,215 200,245 160,245" fill="#E5A630"/>
    <polygon points="200,215 230,215 240,245 200,245" fill="#D4832E"/>
    <polygon points="160,245 240,245 230,248 170,248" fill="#B86D1F"/>

    <polygon points="155,245 245,245 240,253 160,253" fill="#8B4D3B"/>
    <polygon points="160,253 240,253 240,260 160,260" fill="#6D3A2C"/>
    <polygon points="160,260 240,260 235,264 165,264" fill="#4A2A1E"/>
  </g>

  <!-- Blue envelope (right satellite) -->
  <g>
    <polygon points="275,200 370,200 370,212 275,212" fill="#4D8AAA"/>
    <polygon points="275,212 370,212 370,258 275,258" fill="#2D6A8A"/>
    <polygon points="370,200 375,205 375,262 370,258" fill="#1D5A7A"/>
    <polygon points="275,258 370,258 375,262 280,262" fill="#1D5A7A"/>
    <polygon points="275,200 322,236 275,236" fill="#3D7A9A"/>
    <polygon points="370,200 322,236 370,236" fill="#2D6A8A"/>
    <polygon points="275,200 370,200 322,236" fill="#5D9ABB"/>
  </g>

  <!-- Bottom-left sage leaves -->
  <g>
    <polygon points="25,275 40,258 40,275" fill="#6a9a5a"/>
    <polygon points="40,258 55,275 40,275" fill="#5a8a4a"/>
    <polygon points="40,275 55,275 40,288" fill="#4a7a3a"/>
    <polygon points="25,275 40,275 40,288" fill="#5a8a4a"/>
    <polygon points="55,280 65,268 75,280" fill="#6a9a5a"/>
    <polygon points="65,268 75,280 65,288" fill="#5a8a4a"/>
  </g>

  <!-- Bottom-right sage leaves -->
  <g>
    <polygon points="345,275 360,258 360,275" fill="#6a9a5a"/>
    <polygon points="360,258 375,275 360,275" fill="#5a8a4a"/>
    <polygon points="360,275 375,275 360,288" fill="#4a7a3a"/>
    <polygon points="345,275 360,275 360,288" fill="#5a8a4a"/>
    <polygon points="325,280 335,268 345,280" fill="#6a9a5a"/>
    <polygon points="335,268 345,280 335,288" fill="#5a8a4a"/>
  </g>

  <!-- Accent diamonds -->
  <polygon points="140,50 145,45 150,50 145,55" fill="#D4832E"/>
  <polygon points="275,60 279,56 283,60 279,64" fill="#5a8a4a"/>
</svg>
