<svg xmlns="http://www.w3.org/2000/svg" viewBox="0 0 400 320">
  <rect width="400" height="320" fill="#faf5ef"/>
  <ellipse cx="200" cy="175" rx="155" ry="135" fill="#f2eadf"/>
  <ellipse cx="200" cy="185" rx="115" ry="100" fill="#e8d9c5"/>

  <polygon points="340,175 332,140 312,108 280,85 238,75 200,73 162,75 120,85 88,108 68,140 60,175 68,210 88,242 120,265 162,275 200,277 238,275 280,265 312,242 332,210" fill="#a9c9dc"/>

  <polygon points="60,265 340,265 360,285 40,285" fill="#d8c7b0"/>
  <polygon points="40,285 360,285 380,295 20,295" fill="#b89f85"/>

  <g>
    <polygon points="90,75 75,105 90,135" fill="#e2c39d"/>
    <polygon points="90,75 90,135 105,105" fill="#cba079"/>
    <polygon points="90,75 75,105 90,105" fill="#8b5234"/>
    <polygon points="90,75 90,105 105,105" fill="#5a2e22"/>
    <polygon points="82,135 90,160 98,135" fill="#f3e6cc"/>
    <polygon points="90,135 60,160 70,225 90,230" fill="#5a8aa8"/>
    <polygon points="90,135 90,230 110,225 120,160" fill="#2d6a8a"/>
    <polygon points="60,160 48,205 70,215" fill="#5a8aa8"/>
    <polygon points="120,160 132,205 110,215" fill="#2d6a8a"/>
    <polygon points="70,225 65,265 90,265" fill="#5a8aa8"/>
    <polygon points="110,225 115,265 90,265" fill="#2d6a8a"/>
  </g>

  <g>
    <polygon points="248,248 332,248 326,255 254,255" fill="#b89f85"/>
    <polygon points="245,100 290,100 290,245 245,245" fill="#f3e6cc"/>
    <polygon points="290,100 335,100 335,245 290,245" fill="#e8d9c5"/>
    <polygon points="260,128 320,128 320,134 260,134" fill="#d8c399"/>
    <polygon points="260,148 320,148 320,154 260,154" fill="#d8c399"/>
    <polygon points="260,168 320,168 320,174 260,174" fill="#d8c399"/>
    <polygon points="260,188 320,188 320,194 260,194" fill="#d8c399"/>
    <polygon points="290,208 298,216 302,220 298,224 290,232 282,224 278,220 282,216" fill="#d4832e"/>
    <polygon points="290,208 298,216 290,220 282,216" fill="#e8a54a"/>
    <polygon points="286,232 282,248 290,246" fill="#b36620"/>
    <polygon points="294,232 298,248 290,246" fill="#b36620"/>
  </g>

  <g>
    <polygon points="290,115 260,145 290,175 320,145" fill="#2d6a8a"/>
    <polygon points="290,120 265,145 290,170" fill="#d6eaf2"/>
    <polygon points="290,120 290,170 315,145" fill="#8ab8d0"/>
    <polygon points="285,175 290,175 290,210 285,210" fill="#5a8aa8"/>
    <polygon points="290,175 295,175 295,210 290,210" fill="#2d6a8a"/>
  </g>

  <g>
    <polygon points="22,275 40,250 58,275 40,295" fill="#5a8a4a"/>
    <polygon points="22,275 40,250 40,275" fill="#79a35e"/>
    <polygon points="40,250 58,275 40,275" fill="#3e6a34"/>
  </g>
  <g>
    <polygon points="342,275 360,250 378,275 360,295" fill="#5a8a4a"/>
    <polygon points="342,275 360,250 360,275" fill="#79a35e"/>
    <polygon points="360,250 378,275 360,275" fill="#3e6a34"/>
  </g>

  <polygon points="60,45 68,53 60,61 52,53" fill="#d4832e"/>
  <polygon points="60,45 68,53 60,53" fill="#e8a54a"/>
  <polygon points="340,45 348,53 340,61 332,53" fill="#2d6a8a"/>
  <polygon points="340,45 348,53 340,53" fill="#8ab8d0"/>
</svg>
