<svg xmlns="http://www.w3.org/2000/svg" viewBox="0 0 400 320">
  <rect width="400" height="320" fill="#faf5ef"/>
  <ellipse cx="200" cy="175" rx="155" ry="135" fill="#f2eadf"/>
  <ellipse cx="200" cy="185" rx="115" ry="100" fill="#e8d9c5"/>

  <polygon points="360,175 348,135 320,100 278,80 238,72 200,70 162,72 122,80 80,100 52,135 40,175 52,215 80,250 122,270 162,278 200,280 238,278 278,270 320,250 348,215" fill="#e8b88a"/>

  <polygon points="60,265 340,265 360,285 40,285" fill="#d8c7b0"/>
  <polygon points="40,285 360,285 380,295 20,295" fill="#b89f85"/>

  <g>
    <polygon points="60,230 60,265 35,265" fill="#8b5234"/>
    <polygon points="60,230 85,265 60,265" fill="#5a2e22"/>
  </g>

  <g>
    <polygon points="130,200 115,220 130,235" fill="#cba079"/>
    <polygon points="130,200 130,235 145,220" fill="#9a6e48"/>
    <polygon points="130,200 115,220 130,220" fill="#8b5234"/>
    <polygon points="130,200 130,220 145,220" fill="#5a2e22"/>
    <polygon points="130,235 105,265 130,265" fill="#a55d2e"/>
    <polygon points="130,235 130,265 155,265" fill="#8b5234"/>
  </g>

  <g>
    <polygon points="200,180 187,200 200,218" fill="#e2c39d"/>
    <polygon points="200,180 200,218 213,200" fill="#cba079"/>
    <polygon points="200,180 187,200 200,200" fill="#a55d2e"/>
    <polygon points="200,180 200,200 213,200" fill="#8b5234"/>
    <polygon points="200,218 182,232 185,260 200,265" fill="#d4832e"/>
    <polygon points="200,218 200,265 215,260 218,232" fill="#b36620"/>
    <polygon points="182,232 170,258 185,255" fill="#cba079"/>
    <polygon points="218,232 230,258 215,255" fill="#cba079"/>
    <polygon points="185,260 190,265 200,265" fill="#cba079"/>
    <polygon points="215,260 210,265 200,265" fill="#9a6e48"/>
  </g>

  <g>
    <polygon points="272,162 258,182 272,205" fill="#e2c39d"/>
    <polygon points="272,162 272,205 286,182" fill="#cba079"/>
    <polygon points="272,162 258,182 272,178" fill="#5a2e22"/>
    <polygon points="272,162 272,178 286,182" fill="#8b5234"/>
    <polygon points="272,205 252,218 252,250 272,258" fill="#d4832e"/>
    <polygon points="272,205 272,258 292,250 292,218" fill="#b36620"/>
    <polygon points="252,218 236,246 250,248" fill="#cba079"/>
    <polygon points="292,218 308,246 294,248" fill="#cba079"/>
    <polygon points="252,250 258,265 272,265" fill="#8b5234"/>
    <polygon points="292,250 286,265 272,265" fill="#5a2e22"/>
  </g>

  <g>
    <polygon points="345,148 330,172 345,198" fill="#e2c39d"/>
    <polygon points="345,148 345,198 360,172" fill="#cba079"/>
    <polygon points="345,148 330,172 345,168" fill="#8b5234"/>
    <polygon points="345,148 345,168 360,172" fill="#5a2e22"/>
    <polygon points="345,198 322,212 322,250 345,260" fill="#5a8aa8"/>
    <polygon points="345,198 345,260 368,250 368,212" fill="#2d6a8a"/>
    <polygon points="322,212 312,242 326,242" fill="#5a8aa8"/>
    <polygon points="368,212 378,242 364,242" fill="#2d6a8a"/>
    <polygon points="322,250 328,265 345,265" fill="#5a8aa8"/>
    <polygon points="368,250 362,265 345,265" fill="#2d6a8a"/>
    <polygon points="326,232 345,232 345,258 326,258" fill="#f3e6cc"/>
    <polygon points="345,232 364,232 364,258 345,258" fill="#e8d9c5"/>
    <polygon points="330,240 360,240 360,242 330,242" fill="#d8c399"/>
    <polygon points="330,248 360,248 360,250 330,250" fill="#d8c399"/>
  </g>

  <g>
    <polygon points="22,275 40,250 58,275 40,295" fill="#5a8a4a"/>
    <polygon points="22,275 40,250 40,275" fill="#79a35e"/>
    <polygon points="40,250 58,275 40,275" fill="#3e6a34"/>
  </g>
  <g>
    <polygon points="378,285 386,272 394,285 386,298" fill="#5a8a4a"/>
  </g>

  <polygon points="60,45 68,53 60,61 52,53" fill="#d4832e"/>
  <polygon points="60,45 68,53 60,53" fill="#e8a54a"/>
  <polygon points="340,45 348,53 340,61 332,53" fill="#2d6a8a"/>
  <polygon points="340,45 348,53 340,53" fill="#8ab8d0"/>
</svg>
