<svg xmlns="http://www.w3.org/2000/svg" viewBox="0 0 160 135">
  <g transform="translate(30, 10)">
    <polygon points="12,18 50,47 50,60 32,92 12,78" fill="#2D6A8A"/>
    <polygon points="50,47 88,18 88,78 68,92 50,72" fill="#8B4D3B"/>
    <polygon points="32,60 50,47 50,72 32,92" fill="#D4832E"/>
    <polygon points="68,60 50,47 50,72 68,92" fill="#D4832E"/>
    <polygon points="32,60 50,72 32,92" fill="#E5A630"/>
    <polygon points="68,60 50,72 68,92" fill="#E5A630"/>
  </g>
  <g fill="#4a4240"><path d="M784 692L784 0L693 0L693 516L463 0L399 0L168 517L168 0L77 0L77 692L175 692L431 120L687 692Z" transform="translate(29.636 120) scale(0.018000 -0.018000)"/><path d="M43 276Q43 360 77 423.5Q111 487 170.5 522Q230 557 303 557Q375 557 428 526Q481 495 507 448L507 548L599 548L599 0L507 0L507 102Q480 54 426.5 22.5Q373 -9 302 -9Q229 -9 170 27Q111 63 77 128Q43 193 43 276ZM507 275Q507 337 482 383Q457 429 414.5 453.5Q372 478 321 478Q270 478 228 454Q186 430 161 384Q136 338 136 276Q136 213 161 166.5Q186 120 228 95.5Q270 71 321 71Q372 71 414.5 95.5Q457 120 482 166.5Q507 213 507 275Z" transform="translate(45.134 120) scale(0.018000 -0.018000)"/><path d="M383 0L168 242L168 0L77 0L77 740L168 740L168 305L379 548L506 548L248 275L507 0Z" transform="translate(57.302 120) scale(0.018000 -0.018000)"/><path d="M577 295Q577 269 574 240L136 240Q141 159 191.5 113.5Q242 68 314 68Q373 68 412.5 95.5Q452 123 468 169L566 169Q544 90 478 40.5Q412 -9 314 -9Q236 -9 174.5 26Q113 61 78 125.5Q43 190 43 275Q43 360 77 424Q111 488 172.5 522.5Q234 557 314 557Q392 557 452 523Q512 489 544.5 429.5Q577 370 577 295ZM483 314Q483 366 460 403.5Q437 441 397.5 460.5Q358 480 310 480Q241 480 192.5 436Q144 392 137 314L483 314Z" transform="translate(66.572 120) scale(0.018000 -0.018000)"/><path d="" transform="translate(77.732 120) scale(0.018000 -0.018000)"/><path d="M43 276Q43 360 77 423.5Q111 487 170.5 522Q230 557 303 557Q375 557 428 526Q481 495 507 448L507 548L599 548L599 0L507 0L507 102Q480 54 426.5 22.5Q373 -9 302 -9Q229 -9 170 27Q111 63 77 128Q43 193 43 276ZM507 275Q507 337 482 383Q457 429 414.5 453.5Q372 478 321 478Q270 478 228 454Q186 430 161 384Q136 338 136 276Q136 213 161 166.5Q186 120 228 95.5Q270 71 321 71Q372 71 414.5 95.5Q457 120 482 166.5Q507 213 507 275Z" transform="translate(82.538 120) scale(0.018000 -0.018000)"/><path d="" transform="translate(94.706 120) scale(0.018000 -0.018000)"/><path d="M953 697L751 0L649 0L487 561L319 0L218 -1L23 697L120 697L272 106L440 697L542 697L702 108L855 697Z" transform="translate(99.512 120) scale(0.018000 -0.018000)"/><path d="M124 637Q98 637 80 655Q62 673 62 699Q62 725 80 743Q98 761 124 761Q149 761 166.5 743Q184 725 184 699Q184 673 166.5 655Q149 637 124 637ZM168 548L168 0L77 0L77 548Z" transform="translate(117.080 120) scale(0.018000 -0.018000)"/><path d="M168 740L168 0L77 0L77 740Z" transform="translate(121.508 120) scale(0.018000 -0.018000)"/><path d="M168 740L168 0L77 0L77 740Z" transform="translate(125.936 120) scale(0.018000 -0.018000)"/></g>
</svg>
